<svg width="58" height="30" viewBox="0 0 58 30" fill="none" xmlns="http://www.w3.org/2000/svg">
<mask id="path-1-inside-1_1053_11" fill="white">
<path fill-rule="evenodd" clip-rule="evenodd" d="M9.61947 0H0V30H7.94108C8.46835 26.9286 10.9802 24.6016 13.9992 24.6016C17.0183 24.6016 19.5301 26.9286 20.0574 30H28V0H18.3763L13.9979 4.69117L9.61947 0Z"/>
</mask>
<path d="M9.61947 0L11.0816 -1.36464L10.4886 -2H9.61947V0ZM0 0V-2H-2V0H0ZM0 30H-2V32H0V30ZM7.94108 30V32H9.62699L9.91225 30.3384L7.94108 30ZM20.0574 30L18.0862 30.3384L18.3715 32H20.0574V30ZM28 30V32H30V30H28ZM28 0H30V-2H28V0ZM18.3763 0V-2H17.5072L16.9142 -1.36464L18.3763 0ZM13.9979 4.69117L12.5358 6.05581L13.9979 7.62235L15.46 6.05581L13.9979 4.69117ZM9.61947 -2H0V2H9.61947V-2ZM-2 0V30H2V0H-2ZM0 32H7.94108V28H0V32ZM9.91225 30.3384C10.2947 28.1105 12.0678 26.6016 13.9992 26.6016V22.6016C9.89256 22.6016 6.64199 25.7467 5.96992 29.6616L9.91225 30.3384ZM13.9992 26.6016C15.9307 26.6016 17.7038 28.1105 18.0862 30.3384L22.0286 29.6616C21.3565 25.7467 18.1059 22.6016 13.9992 22.6016V26.6016ZM20.0574 32H28V28H20.0574V32ZM30 30V0H26V30H30ZM28 -2H18.3763V2H28V-2ZM16.9142 -1.36464L12.5358 3.32653L15.46 6.05581L19.8384 1.36464L16.9142 -1.36464ZM15.46 3.32653L11.0816 -1.36464L8.15736 1.36464L12.5358 6.05581L15.46 3.32653Z" fill="#353535" mask="url(#path-1-inside-1_1053_11)"/>
<path d="M39.796 21.3001L39.7961 21.345H39.841H40.705H40.7501L40.75 21.2999L40.741 14.9999L40.7409 14.955H40.696H39.958H39.9322L39.9192 14.9773L37.3657 19.3394L34.7767 14.977L34.7636 14.955H34.738H34H33.955V15V21.3V21.345H34H34.864H34.909V21.3V16.8996L37.1024 20.5581L37.1155 20.58H37.141H37.555H37.5806L37.5937 20.558L39.7873 16.873L39.796 21.3001Z" fill="#353535" stroke="#353535" stroke-width="0.09"/>
<path d="M42.3932 19.8917L42.3934 19.8921C42.6915 20.391 43.0994 20.7836 43.6162 21.0694L43.6166 21.0696C44.1338 21.3495 44.7143 21.489 45.357 21.489C45.9938 21.489 46.5713 21.3494 47.0884 21.0696L47.0888 21.0694C47.6056 20.7836 48.0105 20.3941 48.3027 19.9009L48.3028 19.9007C48.5952 19.4013 48.741 18.8414 48.741 18.222C48.741 17.6027 48.5952 17.0457 48.3028 16.5522C48.0106 16.053 47.6056 15.6633 47.0886 15.3835C46.5714 15.0976 45.9939 14.955 45.357 14.955C44.7142 14.955 44.1336 15.0976 43.6164 15.3835C43.0995 15.6633 42.6915 16.0529 42.3934 16.5519L42.3934 16.5519L42.3932 16.5523C42.1009 17.0516 41.955 17.6085 41.955 18.222C41.955 18.8355 42.1009 19.3924 42.3932 19.8917ZM46.5769 20.2888L46.5766 20.289C46.2181 20.4947 45.8119 20.598 45.357 20.598C44.9022 20.598 44.4898 20.4947 44.119 20.2887C43.754 20.0827 43.4659 19.8004 43.254 19.4415C43.0482 19.0768 42.945 18.6706 42.945 18.222C42.945 17.7732 43.0482 17.3701 43.254 17.0115C43.4659 16.6465 43.7541 16.3613 44.119 16.1553C44.4898 15.9493 44.9022 15.846 45.357 15.846C45.8119 15.846 46.2181 15.9493 46.5766 16.155L46.5769 16.1552C46.9417 16.3612 47.2268 16.6463 47.4328 17.0111L47.4328 17.0111L47.4332 17.0119C47.6449 17.3704 47.751 17.7734 47.751 18.222C47.751 18.6706 47.6449 19.0767 47.4331 19.4414L47.433 19.4416C47.227 19.8005 46.9419 20.0827 46.5769 20.2888Z" fill="#353535" stroke="#353535" stroke-width="0.09"/>
<path d="M40.755 23V22.955H40.71H39.7691H39.7241V23V25.664H34.9859V23V22.955H34.9409H34H33.955V23V29.3V29.345H34H34.9409H34.9859V29.3V26.537H39.7241V29.3V29.345H39.7691H40.71H40.755V29.3V23Z" fill="#353535" stroke="#353535" stroke-width="0.09"/>
<path d="M51.6007 23.0143L51.6205 22.955H51.558H50.703H50.6707L50.6604 22.9856L48.966 28.0072L47.2716 22.9856L47.2613 22.955H47.229H46.401H46.369L46.3585 22.9853L44.6289 27.9809L42.9697 22.9858L42.9595 22.955H42.927H42H41.9375L41.9573 23.0143L44.0633 29.3143L44.0736 29.345H44.106H45.069H45.1012L45.1116 29.3145L46.788 24.4082L48.4644 29.3145L48.4748 29.345H48.507H49.452H49.4844L49.4947 29.3143L51.6007 23.0143Z" fill="#353535" stroke="#353535" stroke-width="0.09"/>
<path d="M51.927 29.345H51.9564L51.9682 29.3181L52.6494 27.77H55.9386L56.6198 29.3181L56.6316 29.345H56.661H57.606H57.6759L57.647 29.2814L54.785 22.9814L54.773 22.955H54.744H53.853H53.824L53.812 22.9814L50.959 29.2814L50.9302 29.345H51H51.927ZM53.004 26.96L54.294 24.0297L55.584 26.96H53.004Z" fill="#353535" stroke="#353535" stroke-width="0.09"/>
</svg>
